<svg width="23.999999999999996" height="23.999999999999996" xmlns="http://www.w3.org/2000/svg">
 <title/>

 <g>
  <title>background</title>
  <rect fill="none" id="canvas_background" height="402" width="582" y="-1" x="-1"/>
 </g>
 <g>
  <title>Layer 1</title>
  <path id="svg_1" d="m14.016,3l6.984,0l0,6.984l-2.016,0l0,-3.563l-9.797,9.797l-1.406,-1.406l9.797,-9.797l-3.563,0l0,-2.016l0.001,0.001zm4.968,15.984l0,-6.984l2.016,0l0,6.984c0,1.078 -0.938,2.016 -2.016,2.016l-13.969,0c-1.125,0 -2.016,-0.938 -2.016,-2.016l0,-13.969c0,-1.078 0.891,-2.016 2.016,-2.016l6.984,0l0,2.016l-6.984,0l0,13.969l13.969,0z"/>
 </g>
</svg>