<svg width="48" height="48" xmlns="http://www.w3.org/2000/svg">

 <g>
  <title>background</title>
  <rect fill="none" id="canvas_background" height="402" width="582" y="-1" x="-1"/>
 </g>
 <g>
  <title>Layer 1</title>
  <path id="svg_1" fill="none" d="m0,0l48,0l0,48l-48,0l0,-48z"/>
  <path id="svg_2" d="m2,42l8,0l0,-24l-8,0l0,24zm44,-22c0,-2.21 -1.79,-4 -4,-4l-12.63,0l1.91,-9.14c0.04,-0.2 0.07,-0.41 0.07,-0.63c0,-0.83 -0.34,-1.58 -0.88,-2.12l-2.13,-2.11l-13.17,13.17c-0.72,0.73 -1.17,1.73 -1.17,2.83l0,20c0,2.21 1.79,4 4,4l18,0c1.66,0 3.08,-1.01 3.68,-2.44l6.03,-14.1c0.18,-0.46 0.29,-0.95 0.29,-1.46l0,-3.83l-0.02,-0.02l0.02,-0.15z"/>
 </g>
</svg>