<svg width="512" height="512" xmlns="http://www.w3.org/2000/svg">

 <g>
  <title>background</title>
  <rect fill="none" id="canvas_background" height="402" width="582" y="-1" x="-1"/>
 </g>
 <g>
  <title>Layer 1</title>
  <path id="svg_1" d="m480,0l-448,0c-17.688,0 -32,14.312 -32,32l0,448c0,17.687988 14.312,32 32,32l448,0c17.687988,0 32,-14.312012 32,-32l0,-448c0,-17.688 -14.312012,-32 -32,-32zm-288,256c0,0 5.061996,-64 64,-64c58.937988,0 64,64 64,64s1.843994,64 -64,64c-65.843994,0 -64,-64 -64,-64zm256,192l-384,0l0,-224l64,0l4.529999,0c-2.654999,10.281006 -4.529999,20.875 -4.529999,32c0,70.687988 57.311996,128 128,128c70.687988,0 128,-57.312012 128,-128c0,-11.125 -1.875,-21.718994 -4.531006,-32l4.531006,0l64,0l0,224zm0,-288l-96,0l0,-96l96,0l0,96z"/>
 </g>
</svg>