<svg width="512" height="512" xmlns="http://www.w3.org/2000/svg" clip-rule="evenodd">

 <g>
  <title>background</title>
  <rect fill="none" id="canvas_background" height="402" width="582" y="-1" x="-1"/>
 </g>
 <g>
  <title>Layer 1</title>
  <path id="svg_1" d="m449.446014,0c34.524994,0 62.553986,28.030001 62.553986,62.554001l0,386.892014c0,34.523987 -28.029999,62.553986 -62.553986,62.553986l-386.891994,0c-34.524,0 -62.554,-28.029999 -62.554,-62.553986l0,-386.892014c0,-34.524 28.028991,-62.554001 62.554,-62.554001l386.891994,0zm-253.927002,424.544006c135.938995,0 210.268005,-112.643005 210.268005,-210.268005c0,-3.218002 0,-6.436996 -0.152985,-9.501999c14.405975,-10.421005 26.972992,-23.447998 36.934998,-38.313995c-13.180023,5.82399 -27.433014,9.80899 -42.451996,11.647995c15.325989,-9.195999 26.972992,-23.602005 32.48999,-40.919998c-14.252014,8.429001 -30.037994,14.559998 -46.895996,17.931c-13.487,-14.406006 -32.644012,-23.294998 -53.946014,-23.294998c-40.766998,0 -73.869995,33.103989 -73.869995,73.87001c0,5.82399 0.613007,11.493988 1.992004,16.858002c-61.456009,-3.065002 -115.862,-32.490021 -152.337013,-77.241013c-6.284004,10.881012 -9.961998,23.600998 -9.961998,37.088013c0,25.593994 13.027,48.275986 32.949997,61.455994c-12.107002,-0.307007 -23.447998,-3.677994 -33.409996,-9.195999l0,0.919998c0,35.862 25.440994,65.593994 59.311012,72.48999c-6.130005,1.686005 -12.720001,2.606018 -19.46402,2.606018c-4.750992,0 -9.347984,-0.460022 -13.945999,-1.380005c9.348999,29.425995 36.628006,50.727997 68.964996,51.341003c-25.286987,19.770996 -57.163986,31.570984 -91.799995,31.570984c-5.976997,0 -11.800995,-0.306 -17.625,-1.072998c32.337006,21.149994 71.264,33.410004 112.950005,33.410004z"/>
 </g>
</svg>